<?xml version="1.0" encoding="utf-8"?>
<!-- Generator: Adobe Illustrator 16.0.0, SVG Export Plug-In . SVG Version: 6.00 Build 0)  -->
<!DOCTYPE svg PUBLIC "-//W3C//DTD SVG 1.1//EN" "http://www.w3.org/Graphics/SVG/1.1/DTD/svg11.dtd">
<svg version="1.1" id="Layer_1" xmlns="http://www.w3.org/2000/svg" xmlns:xlink="http://www.w3.org/1999/xlink" x="0px" y="0px"
	 width="430.5px" height="116.5px" viewBox="0 -134.5 430.5 116.5" enable-background="new 0 -134.5 430.5 116.5"
	 xml:space="preserve">
<g>
	<path fill="#00549C" d="M7.562-129.428c-5.436,12.155-8.438,26.187-7.335,41.394c2.946,40.55,31.691,72.182,63.391,69.903
		c17.906-1.323,33.188-13.066,42.557-30.361c2.127-3.975,1.252-6.221-2.083-2.724C62.505-7.238,10.539-53.258,8.659-105.223
		c-0.626-8.357-0.208-16.476,0.971-24.206C10.188-132.868,8.658-131.9,7.562-129.428"/>
	<path fill="#FFC341" d="M74.045-105.307c2.193,1.5,4.335,2.786,6.934,2.648c0.294-0.025,0.822,0.042,1.071,0.463
		c0.111,0.246,0.361,0.712-0.169,1.324c-2.112,2.171-5.448,3.788-9.016,4.446c1.11,2.39,2.37,4.562,4.683,5.74
		c0.274,0.148,0.718,0.467,0.685,0.941c0,0.277-0.031,0.803-0.8,1.071c-2.917,0.847-6.6,0.566-10.034-0.682
		c-0.204,2.638-0.249,5.146,1.184,7.28c0.181,0.264,0.391,0.767,0.142,1.193c-0.142,0.22-0.463,0.671-1.24,0.532
		c-2.973-0.746-5.978-2.78-8.341-5.585c-1.528,2.157-2.78,4.308-2.639,6.909c0.025,0.291-0.04,0.819-0.457,1.089
		c-0.267,0.091-0.751,0.351-1.364-0.191c-2.185-2.109-3.753-5.396-4.41-8.987c-2.373,1.125-4.559,2.365-5.741,4.66
		c-0.152,0.272-0.471,0.692-0.967,0.692c-0.241,0-0.779-0.092-1.076-0.768c-0.816-2.959-0.526-6.615,0.712-10.049
		c-2.642-0.208-5.13-0.237-7.328,1.188c-0.28,0.177-0.734,0.388-1.167,0.138c-0.204-0.138-0.679-0.46-0.539-1.24
		c0.749-2.982,2.819-5.978,5.614-8.341c-2.187-1.539-4.326-2.79-6.937-2.643c-0.317,0.028-0.819-0.039-1.069-0.462
		c-0.141-0.258-0.351-0.761,0.181-1.364c2.114-2.185,5.391-3.759,9.005-4.398c-1.111-2.389-2.363-4.573-4.68-5.756
		c-0.28-0.149-0.712-0.475-0.688-0.974c0-0.253,0.051-0.779,0.783-1.067c2.934-0.836,6.614-0.542,10.049,0.678
		c0.224-2.613,0.252-5.146-1.185-7.319c-0.177-0.253-0.388-0.716-0.137-1.142c0.137-0.248,0.474-0.688,1.248-0.545
		c2.938,0.75,5.97,2.828,8.332,5.617c1.528-2.183,2.781-4.321,2.652-6.946c-0.054-0.314,0.031-0.825,0.463-1.068
		c0.233-0.141,0.732-0.354,1.346,0.189c2.198,2.098,3.751,5.396,4.393,8.999c2.407-1.103,4.586-2.354,5.754-4.676
		c0.157-0.288,0.491-0.726,0.971-0.679c0.253,0,0.78,0.028,1.074,0.78c0.837,2.94,0.539,6.587-0.722,10.018
		c2.654,0.252,5.154,0.28,7.34-1.181c0.249-0.155,0.751-0.359,1.166-0.106c0.225,0.141,0.679,0.471,0.54,1.245
		C78.909-110.712,76.843-107.661,74.045-105.307"/>
	<path fill="#00549C" d="M49.235-47.085c-4.586-2.187-5.255-5.255,1.694-5.185c39.927,0.274,57.07-44.909,56.414-79.551
		c-0.066-2.971,1.212-4.017,2.418-0.183c2.019,6.234,3.318,12.947,3.854,19.965c2.612,36.083-17.225,67.164-44.16,69.134
		C62.411-42.387,55.631-44.037,49.235-47.085"/>
	<polygon fill="#005A9C" points="351.397,-85.13 346.226,-85.13 341.429,-98.34 331.741,-85.13 326.097,-85.13 339.784,-102.528 
		334.093,-117.483 339.267,-117.483 343.106,-106.43 351.022,-117.483 356.573,-117.483 344.722,-102.06 	"/>
	<polygon fill="#005A9C" points="375.663,-85.13 370.491,-85.13 365.692,-98.34 356.005,-85.13 350.362,-85.13 364.044,-102.528 
		358.358,-117.483 363.528,-117.483 367.37,-106.43 375.288,-117.483 380.833,-117.483 368.983,-102.06 	"/>
	<polygon fill="#005A9C" points="379.376,-85.13 386.241,-117.483 390.804,-117.483 383.843,-85.13 	"/>
	<path fill="#005A9C" d="M173.436-92.153c-0.033,0.362-0.089,0.699-0.174,1.01c-0.083,0.312-0.189,0.648-0.319,1.01
		c-0.23,0.691-0.618,1.414-1.155,2.168c-0.544,0.754-1.283,1.453-2.216,2.092c-0.938,0.641-2.09,1.165-3.451,1.578
		c-1.362,0.409-2.965,0.616-4.803,0.616c-2.661,0-4.918-0.387-6.774-1.159c-1.855-0.771-3.259-1.912-4.209-3.424
		c-0.297-0.427-0.545-0.853-0.741-1.279c-0.196-0.426-0.345-0.886-0.443-1.38c-0.098-0.494-0.171-1.052-0.219-1.675
		c-0.051-0.623-0.076-1.329-0.076-2.12v-23.843h7.146v22.514c0,1.053,0.045,1.905,0.143,2.563c0.099,0.657,0.243,1.164,0.44,1.526
		c0.815,1.575,2.36,2.365,4.637,2.365c1.495,0,2.691-0.354,3.588-1.058c0.893-0.708,1.422-1.684,1.584-2.932
		c0.032-0.162,0.06-0.344,0.073-0.543c0.018-0.194,0.025-0.375,0.025-0.542v-23.893h6.996v25.077
		C173.486-92.958,173.469-92.513,173.436-92.153"/>
	<path fill="#005A9C" d="M190.48-104.271c-1.479,0-2.825,0.703-4.038,2.117v17.833h-6.653v-16.849c0-1.705-0.09-3.184-0.272-4.434
		c-0.18-1.246-0.398-2.234-0.666-2.955l5.95-1.573c0.595,1.014,0.944,2.213,1.044,3.594c0.725-0.954,1.58-1.787,2.564-2.514
		c0.988-0.722,2.102-1.08,3.352-1.08c0.491,0,0.893,0.031,1.203,0.097c0.315,0.066,0.733,0.213,1.261,0.445l-1.823,5.81
		C191.776-104.108,191.136-104.271,190.48-104.271"/>
	<path fill="#005A9C" d="M210.852-86.094c-1.686,1.611-3.914,2.413-6.685,2.413c-1.784,0-3.365-0.376-4.751-1.131
		c-1.389-0.757-2.295-1.741-2.725-2.957c-0.199-0.559-0.337-1.215-0.421-1.972c-0.084-0.755-0.124-1.772-0.124-3.052v-16.158
		l6.404-1.235v16.209c0,1.15,0.049,2.038,0.148,2.66c0.102,0.624,0.232,1.118,0.402,1.479c0.164,0.358,0.473,0.646,0.922,0.861
		c0.451,0.213,0.927,0.319,1.426,0.319c0.397,0,0.813-0.067,1.248-0.199c0.432-0.129,0.842-0.309,1.223-0.541
		c0.384-0.23,0.728-0.492,1.027-0.789c0.297-0.294,0.517-0.589,0.65-0.887v-17.734l6.401-1.327v19.257
		c0,0.857,0.129,1.684,0.393,2.492c0.264,0.802,0.643,1.5,1.133,2.092l-4.693,2.659C211.94-84.253,211.277-85.075,210.852-86.094"/>
	<path fill="#005A9C" d="M234.548-104.088c-0.707-0.648-1.688-0.973-2.934-0.973c-1.25,0-2.213,0.325-2.904,0.973
		c-0.691,0.649-1.035,1.558-1.035,2.721c0,1.265,0.359,2.171,1.082,2.724c0.723,0.546,1.66,0.825,2.809,0.825
		c2.693,0,4.041-1.182,4.041-3.549C235.604-102.531,235.251-103.44,234.548-104.088 M245.212-105.356
		c-0.723,0.294-1.545,0.442-2.461,0.442c-0.332,0-0.65-0.017-0.965-0.047c-0.314-0.033-0.57-0.064-0.77-0.101
		c0.496,0.59,0.867,1.218,1.111,1.87c0.252,0.66,0.373,1.415,0.373,2.271c0,1.083-0.23,2.087-0.693,3.004
		c-0.463,0.917-1.117,1.708-1.965,2.365c-0.842,0.656-1.834,1.173-2.975,1.551c-1.143,0.379-2.391,0.566-3.748,0.566h-0.693
		c-0.066,0-0.168-0.017-0.301-0.05c-0.857,0.396-1.514,0.748-1.959,1.06c-0.447,0.312-0.672,0.648-0.672,1.01
		c0,0.394,0.359,0.591,1.08,0.591l3.535,0.053c1.9,0.029,3.424,0.21,4.568,0.541c1.145,0.329,2.158,0.9,3.043,1.723
		c1.441,1.347,2.16,3.136,2.16,5.37c0,2.036-0.672,3.779-2.014,5.219c-1.115,1.187-2.557,2.021-4.328,2.513
		c-1.77,0.495-3.639,0.738-5.604,0.738c-1.805,0-3.555-0.186-5.26-0.564s-3.135-1.092-4.279-2.143
		c-1.377-1.282-2.064-2.777-2.064-4.483c0-0.69,0.064-1.227,0.195-1.601c0.133-0.379,0.266-0.699,0.396-0.963h6.109
		c-0.131,0.303-0.215,0.563-0.246,0.783c-0.035,0.216-0.051,0.51-0.051,0.878c0,2.112,1.576,3.169,4.73,3.169
		c0.854,0,1.623-0.059,2.314-0.174c0.689-0.121,1.295-0.344,1.822-0.676c0.494-0.304,0.887-0.677,1.182-1.125
		c0.297-0.454,0.443-0.942,0.443-1.476c0-1.168-0.443-1.96-1.328-2.377c-0.889-0.415-1.988-0.645-3.301-0.674l-2.809-0.05
		c-2.953-0.064-4.977-0.329-6.059-0.789c-0.592-0.23-1.061-0.623-1.404-1.181c-0.344-0.562-0.518-1.266-0.518-2.118
		c0-0.398,0.049-0.791,0.148-1.185c0.098-0.391,0.303-0.771,0.613-1.132c0.314-0.361,0.771-0.707,1.377-1.035
		c0.609-0.326,1.439-0.623,2.49-0.887c-3.611-0.951-5.42-3.285-5.42-6.994c0-1.281,0.256-2.45,0.766-3.498
		c0.512-1.052,1.23-1.947,2.156-2.685c0.922-0.74,2.045-1.316,3.361-1.728c1.322-0.41,2.789-0.614,4.41-0.614
		c0.723,0,1.434,0.05,2.127,0.148c0.691,0.102,1.498,0.264,2.424,0.493c0.693,0.166,1.279,0.294,1.756,0.394
		c0.479,0.098,0.936,0.148,1.361,0.148c0.922,0,1.838-0.188,2.742-0.569c0.906-0.373,1.74-0.909,2.494-1.6l2.758,4.188
		C246.657-106.126,245.935-105.652,245.212-105.356"/>
	<path fill="#005A9C" d="M263.513-86.094c-1.684,1.611-3.91,2.413-6.682,2.413c-1.783,0-3.369-0.376-4.754-1.131
		c-1.387-0.757-2.291-1.741-2.725-2.957c-0.199-0.559-0.336-1.215-0.422-1.972c-0.08-0.755-0.121-1.772-0.121-3.052v-16.158
		l6.404-1.235v16.209c0,1.15,0.049,2.038,0.15,2.66c0.098,0.624,0.232,1.118,0.398,1.479c0.164,0.358,0.477,0.646,0.922,0.861
		c0.451,0.213,0.926,0.319,1.426,0.319c0.4,0,0.816-0.067,1.25-0.199c0.432-0.129,0.84-0.309,1.225-0.541
		c0.381-0.23,0.723-0.492,1.023-0.789c0.297-0.294,0.514-0.589,0.648-0.887v-17.734l6.406-1.327v19.257
		c0,0.857,0.131,1.684,0.395,2.492c0.262,0.802,0.643,1.5,1.135,2.092l-4.697,2.659C264.604-84.253,263.938-85.075,263.513-86.094"
		/>
	<path fill="#005A9C" d="M281.72-94.578c-0.891,0.52-1.334,1.524-1.334,3.013c0,0.974,0.264,1.755,0.799,2.356
		c0.535,0.598,1.221,0.9,2.063,0.9c1.293,0,2.424-0.57,3.395-1.703l0.1-5.344h-0.293C284.183-95.356,282.61-95.094,281.72-94.578
		 M289.884-84.32c-0.637-0.523-1.117-1.116-1.447-1.773c-0.26,0.261-0.512,0.508-0.756,0.737c-0.248,0.228-0.5,0.427-0.762,0.593
		c-1.24,0.917-2.926,1.376-5.049,1.376c-2.844,0-4.992-0.676-6.445-2.027c-1.453-1.358-2.184-3.325-2.184-5.9
		c0-3.007,1-5.211,3.004-6.615c2.006-1.404,5.045-2.108,9.113-2.108h0.742c0.328,0,0.574,0.017,0.74,0.053V-101
		c0-1.383-0.191-2.339-0.57-2.87c-0.375-0.528-1.176-0.798-2.387-0.798c-1.053,0-2.186,0.249-3.402,0.743
		c-1.213,0.491-2.512,1.197-3.889,2.118l-2.813-4.729c0.66-0.431,1.283-0.792,1.875-1.086c0.59-0.294,1.33-0.623,2.219-0.984
		c1.246-0.524,2.422-0.903,3.521-1.133c1.1-0.23,2.225-0.346,3.371-0.346c2.156,0,3.914,0.379,5.273,1.133
		c1.357,0.757,2.281,1.84,2.766,3.254c0.16,0.357,0.275,0.746,0.34,1.154c0.063,0.413,0.096,0.959,0.096,1.65v1.727l-0.146,8.471
		c0,0.693,0.016,1.292,0.049,1.798c0.029,0.511,0.129,0.98,0.297,1.405c0.162,0.428,0.398,0.83,0.713,1.207
		c0.313,0.378,0.744,0.778,1.307,1.208l-3.496,4.038C291.218-83.368,290.522-83.795,289.884-84.32"/>
	<path fill="#005A9C" d="M309.204-78.395c-0.723,1.244-1.543,2.179-2.463,2.802c-0.855,0.619-1.799,1.118-2.834,1.497
		c-1.031,0.377-2.125,0.646-3.275,0.81l-2.266-4.335c0.723-0.194,1.459-0.436,2.217-0.715c0.756-0.277,1.379-0.597,1.875-0.959
		c0.721-0.524,1.342-1.215,1.867-2.067c0.166-0.264,0.297-0.494,0.395-0.691c0.104-0.199,0.201-0.403,0.297-0.616
		c0.098-0.214,0.207-0.452,0.322-0.713c0.113-0.266,0.252-0.573,0.418-0.937h-1.676l-2.365-7.095l-5.961-17.734l6.75-0.787
		l4.385,14.828c0.098,0.393,0.227,0.887,0.393,1.479c0.164,0.59,0.311,1.166,0.445,1.722c0.129,0.562,0.246,1.035,0.344,1.427
		l0.146,0.595c0-0.067,0.039-0.322,0.125-0.766c0.08-0.443,0.189-0.998,0.318-1.675c0.133-0.673,0.246-1.206,0.346-1.601
		c0.1-0.424,0.238-0.968,0.422-1.624c0.176-0.656,0.367-1.282,0.563-1.872l3.793-12.023h6.949l-9.166,25.551
		C310.716-81.476,309.925-79.638,309.204-78.395"/>
	<g>
		<path fill="#005A9C" d="M155.767-59.418c-0.581,0.271-1.128,0.419-2.527,0.419h-1.402v4.656h-2.547v-12.642h3.329
			c2.147,0,2.801,0.218,3.511,0.618c1.183,0.653,1.819,1.819,1.819,3.275C157.95-61.419,157.15-60.072,155.767-59.418z
			 M153.458-64.93h-1.619v3.856h1.327c1.037,0,1.345-0.126,1.692-0.653c0.219-0.346,0.31-0.71,0.31-1.312
			C155.167-64.219,154.53-64.93,153.458-64.93z"/>
		<path fill="#005A9C" d="M165.752-54.343c-0.49-0.835-0.691-1.183-1.181-2.072c-1.256-2.273-1.638-2.892-2.093-3.092
			c-0.126-0.056-0.236-0.093-0.398-0.11v5.275h-2.492v-12.643h4.71c2.239,0,3.71,1.492,3.71,3.71c0,1.893-1.255,3.457-2.819,3.494
			c0.254,0.198,0.362,0.31,0.526,0.527c0.727,0.907,3.037,4.91,3.037,4.91H165.752z M164.424-64.765
			c-0.291-0.109-0.818-0.183-1.437-0.183h-0.908v3.419h0.855c1.091,0,1.564-0.108,1.91-0.418c0.309-0.291,0.49-0.745,0.49-1.273
			C165.334-64.001,165.024-64.547,164.424-64.765z"/>
		<path fill="#005A9C" d="M177.757-54.725c-0.764,0.418-1.475,0.583-2.528,0.583c-1.911,0-3.147-0.528-4.111-1.784
			c-0.964-1.235-1.455-2.838-1.455-4.692c0-2.729,1.037-4.911,2.857-5.912c0.745-0.398,1.673-0.617,2.617-0.617
			c3.366,0,5.44,2.454,5.44,6.422C180.577-57.872,179.594-55.726,177.757-54.725z M177.319-63.583
			c-0.198-0.638-0.872-1.602-2.218-1.602c-0.856,0-1.602,0.438-1.964,1.109c-0.438,0.817-0.637,1.929-0.637,3.455
			c0,2.183,0.363,3.546,1.127,4.093c0.4,0.29,0.908,0.437,1.509,0.437c1.765,0,2.511-1.346,2.511-4.564
			C177.648-61.946,177.539-62.873,177.319-63.583z"/>
		<path fill="#005A9C" d="M192.78-54.343l-0.474-6.748c-0.056-0.801-0.091-1.438-0.091-2.109c-0.146,0.727-0.254,1.181-0.473,1.945
			l-2.001,6.912h-2.164l-1.8-6.639c-0.163-0.618-0.383-1.511-0.509-2.237c0,0.745-0.037,1.491-0.092,2.275l-0.437,6.601h-2.529
			l1.183-12.642h3.256l1.655,6.331c0.236,0.908,0.327,1.347,0.436,2c0.109-0.653,0.255-1.31,0.455-2.056l1.709-6.275h3.239
			l1.127,12.642H192.78z"/>
		<path fill="#005A9C" d="M205.003-54.725c-0.765,0.418-1.474,0.583-2.529,0.583c-1.909,0-3.147-0.528-4.111-1.784
			c-0.965-1.235-1.455-2.838-1.455-4.692c0-2.729,1.037-4.911,2.856-5.912c0.746-0.398,1.674-0.617,2.619-0.617
			c3.366,0,5.438,2.454,5.438,6.422C207.822-57.872,206.84-55.726,205.003-54.725z M204.565-63.583
			c-0.2-0.638-0.871-1.602-2.218-1.602c-0.855,0-1.602,0.438-1.967,1.109c-0.436,0.817-0.635,1.929-0.635,3.455
			c0,2.183,0.363,3.546,1.128,4.093c0.398,0.29,0.909,0.437,1.509,0.437c1.765,0,2.51-1.346,2.51-4.564
			C204.893-61.946,204.783-62.873,204.565-63.583z"/>
		<path fill="#005A9C" d="M214.933-54.124c-1.746,0-3.093-0.565-4.128-1.745c-1.02-1.147-1.529-2.675-1.529-4.531
			c0-1.58,0.272-2.835,0.855-3.928c0.983-1.837,2.801-2.928,4.839-2.928c1.255,0,2.51,0.399,3.201,1l-1.146,1.728
			c-0.638-0.474-1.311-0.709-2.019-0.709c-0.857,0-1.693,0.419-2.146,1.092c-0.491,0.728-0.709,1.781-0.709,3.256
			c0,1.728,0.145,2.691,0.525,3.382c0.51,0.93,1.347,1.419,2.438,1.419c0.746,0,1.419-0.218,2.165-0.817l1.164,1.601
			C217.444-54.488,216.369-54.124,214.933-54.124z"/>
		<path fill="#005A9C" d="M220.079-54.343v-12.642h2.656v12.642H220.079z"/>
		<path fill="#005A9C" d="M232.921-54.725c-0.766,0.418-1.475,0.583-2.529,0.583c-1.91,0-3.146-0.528-4.111-1.784
			c-0.963-1.235-1.455-2.838-1.455-4.692c0-2.729,1.037-4.911,2.855-5.912c0.746-0.398,1.674-0.617,2.621-0.617
			c3.365,0,5.438,2.454,5.438,6.422C235.739-57.872,234.759-55.726,232.921-54.725z M232.485-63.583
			c-0.199-0.638-0.873-1.602-2.219-1.602c-0.855,0-1.602,0.438-1.967,1.109c-0.436,0.817-0.637,1.929-0.637,3.455
			c0,2.183,0.363,3.546,1.129,4.093c0.4,0.29,0.908,0.437,1.51,0.437c1.764,0,2.51-1.346,2.51-4.564
			C232.812-61.946,232.704-62.873,232.485-63.583z M228.772-67.385l-0.746-1.346l3.766-2.366l1.057,1.893L228.772-67.385z"/>
		<path fill="#005A9C" d="M243.778-54.343l-2.164-4.839c-0.709-1.581-1.473-3.363-1.709-4.146c0.09,1.036,0.107,2.528,0.127,3.583
			l0.072,5.402h-2.453v-12.642h2.818l2.418,5.057c0.637,1.346,1.129,2.675,1.383,3.582c-0.092-0.982-0.182-2.6-0.199-3.474
			l-0.055-5.165h2.418v12.641L243.778-54.343L243.778-54.343z"/>
		<path fill="#005A9C" d="M260.856-56.235c-0.764,1.037-1.891,1.729-3.074,1.82c-0.473,0.037-1.072,0.072-1.818,0.072h-3.074
			v-12.642h2.547c0.727,0,1.691,0.036,2.199,0.073c1.074,0.091,2,0.49,2.766,1.255c1.164,1.146,1.729,2.765,1.729,5.038
			C262.132-58.891,261.714-57.38,260.856-56.235z M258.638-63.929c-0.418-0.69-1-1.055-2-1.055h-1.164v8.567h1.365
			c1.672,0,2.438-1.292,2.438-3.966C259.276-61.855,259.147-63.091,258.638-63.929z"/>
		<path fill="#005A9C" d="M264.132-54.343v-12.642h7.201l-0.326,2.073h-4.33v2.93h3.621v2.072h-3.582v3.383h4.783v2.183
			L264.132-54.343L264.132-54.343z"/>
		<path fill="#005A9C" d="M277.044-54.343v-12.642h2.656v12.642H277.044z"/>
		<path fill="#005A9C" d="M288.376-54.343l-2.166-4.839c-0.707-1.581-1.473-3.363-1.709-4.146c0.092,1.036,0.111,2.528,0.129,3.583
			l0.072,5.402h-2.455v-12.642h2.818l2.42,5.057c0.637,1.346,1.127,2.675,1.383,3.582c-0.092-0.982-0.184-2.6-0.201-3.474
			l-0.055-5.165h2.418v12.641L288.376-54.343L288.376-54.343z"/>
		<path fill="#005A9C" d="M298.542-54.252h-2.309l-4.295-12.732h2.785l2.092,6.584c0.182,0.565,0.383,1.274,0.582,2.201
			c0.164-0.782,0.49-1.836,0.727-2.527l2.148-6.258h2.674L298.542-54.252z"/>
		<path fill="#005A9C" d="M303.853-54.343v-12.642h7.203l-0.328,2.073h-4.33v2.93h3.621v2.072h-3.584v3.383h4.787v2.183
			L303.853-54.343L303.853-54.343z"/>
		<path fill="#005A9C" d="M319.022-54.343c-0.49-0.835-0.693-1.183-1.182-2.072c-1.256-2.273-1.639-2.892-2.092-3.092
			c-0.129-0.056-0.236-0.093-0.4-0.11v5.275h-2.492v-12.643h4.711c2.238,0,3.711,1.492,3.711,3.71c0,1.893-1.256,3.457-2.82,3.494
			c0.256,0.198,0.363,0.31,0.527,0.527c0.729,0.907,3.037,4.91,3.037,4.91H319.022z M317.694-64.765
			c-0.291-0.109-0.818-0.183-1.438-0.183h-0.908v3.419h0.855c1.09,0,1.564-0.108,1.91-0.418c0.309-0.291,0.49-0.745,0.49-1.273
			C318.604-64.001,318.294-64.547,317.694-64.765z"/>
		<path fill="#005A9C" d="M327.062-54.07c-1.438,0-3.039-0.418-4.313-1.146l0.947-1.983c1.182,0.619,2.201,1.019,3.475,1.019
			c1.453,0,2.219-0.601,2.219-1.729c0-0.817-0.527-1.327-1.656-1.638l-1.4-0.381c-1.254-0.347-2.037-0.837-2.49-1.601
			c-0.348-0.565-0.529-1.219-0.529-1.93c0-2.31,1.857-3.911,4.531-3.911c1.545,0,3.109,0.474,4.219,1.274l-1.201,1.819
			c-1.145-0.691-1.998-0.964-2.945-0.964c-1.037,0-1.766,0.601-1.766,1.455c0,0.654,0.346,0.982,1.402,1.273l1.527,0.418
			c2.072,0.564,3.201,1.893,3.201,3.766C332.28-55.761,330.208-54.07,327.062-54.07z"/>
		<path fill="#005A9C" d="M334.101-54.343v-12.642h2.656v12.642H334.101z"/>
		<path fill="#005A9C" d="M346.851-54.725c-0.766,0.418-1.475,0.583-2.529,0.583c-1.91,0-3.146-0.528-4.111-1.784
			c-0.963-1.235-1.455-2.838-1.455-4.692c0-2.729,1.035-4.911,2.855-5.912c0.746-0.398,1.674-0.617,2.619-0.617
			c3.365,0,5.438,2.454,5.438,6.422C349.669-57.872,348.687-55.726,346.851-54.725z M346.415-63.583
			c-0.201-0.638-0.875-1.602-2.221-1.602c-0.855,0-1.602,0.438-1.965,1.109c-0.436,0.817-0.635,1.929-0.635,3.455
			c0,2.183,0.361,3.546,1.127,4.093c0.4,0.29,0.908,0.437,1.51,0.437c1.766,0,2.508-1.346,2.508-4.564
			C346.739-61.946,346.63-62.873,346.415-63.583z"/>
		<path fill="#005A9C" d="M357.798-54.343l-2.162-4.839c-0.709-1.581-1.475-3.363-1.711-4.146c0.09,1.036,0.109,2.528,0.129,3.583
			l0.07,5.402h-2.455v-12.642h2.82l2.42,5.057c0.637,1.346,1.127,2.675,1.381,3.582c-0.09-0.982-0.182-2.6-0.199-3.474l-0.055-5.165
			h2.42v12.641L357.798-54.343L357.798-54.343z"/>
		<path fill="#005A9C" d="M362.999-54.343v-12.642h7.203l-0.326,2.073h-4.33v2.93h3.621v2.072h-3.584v3.383h4.785v2.183
			L362.999-54.343L362.999-54.343z"/>
		<path fill="#005A9C" d="M375.403-54.07c-1.438,0-3.035-0.418-4.311-1.146l0.947-1.983c1.182,0.619,2.199,1.019,3.473,1.019
			c1.455,0,2.221-0.601,2.221-1.729c0-0.817-0.529-1.327-1.656-1.638l-1.4-0.381c-1.256-0.347-2.037-0.837-2.492-1.601
			c-0.346-0.565-0.525-1.219-0.525-1.93c0-2.31,1.855-3.911,4.529-3.911c1.545,0,3.109,0.474,4.219,1.274l-1.201,1.819
			c-1.146-0.691-2-0.964-2.945-0.964c-1.039,0-1.766,0.601-1.766,1.455c0,0.654,0.348,0.982,1.4,1.273l1.529,0.418
			c2.072,0.564,3.203,1.893,3.203,3.766C380.626-55.761,378.552-54.07,375.403-54.07z"/>
		<path fill="#005A9C" d="M382.86-51.705l-0.963-1.019c0.801-0.182,1.311-0.602,1.311-1.037c0-0.236-0.109-0.363-0.475-0.582
			c-0.492-0.292-0.709-0.691-0.709-1.273c0-0.873,0.709-1.565,1.582-1.565c1.055,0,1.82,0.909,1.82,2.185
			C385.427-53.414,384.39-52.087,382.86-51.705z"/>
		<path fill="#005A9C" d="M149.292-34.229v-12.642h7.203l-0.326,2.073h-4.33v2.928h3.62v2.073h-3.584v3.384h4.785v2.182h-7.368
			V-34.229z"/>
		<path fill="#005A9C" d="M164.443-34.229l-2.275-4.457l-2.254,4.457h-3.165l3.966-6.767l-3.42-5.875h3.111l1.709,3.401l1.729-3.401
			h3.036l-3.292,5.712l3.929,6.93H164.443z"/>
		<path fill="#005A9C" d="M174.992-39.304c-0.582,0.272-1.127,0.418-2.528,0.418h-1.401v4.656h-2.547v-12.642h3.329
			c2.147,0,2.802,0.218,3.511,0.618c1.183,0.654,1.82,1.819,1.82,3.273C177.175-41.306,176.374-39.959,174.992-39.304z
			 M172.682-44.815h-1.619v3.856h1.328c1.037,0,1.346-0.128,1.691-0.655c0.219-0.345,0.31-0.71,0.31-1.31
			C174.391-44.106,173.756-44.815,172.682-44.815z"/>
		<path fill="#005A9C" d="M186.359-34.612c-0.764,0.418-1.473,0.583-2.529,0.583c-1.909,0-3.146-0.527-4.109-1.782
			c-0.966-1.235-1.456-2.838-1.456-4.692c0-2.73,1.037-4.913,2.855-5.914c0.746-0.398,1.674-0.616,2.62-0.616
			c3.364,0,5.438,2.455,5.438,6.42C189.178-37.758,188.197-35.612,186.359-34.612z M185.922-43.47c-0.2-0.637-0.873-1.6-2.219-1.6
			c-0.854,0-1.6,0.437-1.964,1.108c-0.437,0.819-0.637,1.929-0.637,3.457c0,2.182,0.364,3.545,1.127,4.093
			c0.401,0.29,0.909,0.436,1.51,0.436c1.764,0,2.51-1.346,2.51-4.564C186.25-41.833,186.14-42.76,185.922-43.47z"/>
		<path fill="#005A9C" d="M197.345-34.229c-0.492-0.838-0.691-1.183-1.183-2.073c-1.255-2.274-1.636-2.893-2.092-3.092
			c-0.127-0.055-0.236-0.091-0.399-0.109v5.274h-2.492v-12.642h4.71c2.237,0,3.711,1.491,3.711,3.711
			c0,1.892-1.255,3.455-2.821,3.492c0.255,0.199,0.364,0.309,0.528,0.526c0.729,0.91,3.036,4.912,3.036,4.912H197.345z
			 M196.017-44.651c-0.292-0.11-0.819-0.183-1.437-0.183h-0.91v3.419h0.855c1.091,0,1.564-0.108,1.909-0.419
			c0.31-0.29,0.492-0.745,0.492-1.273C196.927-43.888,196.618-44.434,196.017-44.651z"/>
		<path fill="#005A9C" d="M209.041-44.762h-3.021v10.532h-2.581v-10.532h-3.094v-2.109h9.113L209.041-44.762z"/>
		<path fill="#005A9C" d="M216.369-34.229l-0.891-3.001h-3.711l-0.891,3.001h-2.655l4.146-12.678h2.747l3.983,12.678H216.369z
			 M214.17-41.887c-0.128-0.583-0.511-2.237-0.511-2.237s-0.362,1.49-0.601,2.438c-0.235,0.908-0.4,1.509-0.673,2.345h2.474
			C214.86-39.342,214.441-40.668,214.17-41.887z"/>
		<path fill="#005A9C" d="M225.245-34.012c-1.744,0-3.09-0.563-4.129-1.746c-1.018-1.146-1.527-2.673-1.527-4.528
			c0-1.583,0.271-2.838,0.857-3.93c0.982-1.835,2.801-2.928,4.838-2.928c1.254,0,2.508,0.4,3.199,0.999l-1.145,1.73
			c-0.639-0.474-1.311-0.711-2.02-0.711c-0.855,0-1.691,0.418-2.146,1.092c-0.492,0.728-0.709,1.782-0.709,3.255
			c0,1.729,0.145,2.693,0.527,3.384c0.508,0.928,1.346,1.419,2.438,1.419c0.746,0,1.416-0.219,2.162-0.818l1.164,1.602
			C227.757-34.374,226.683-34.012,225.245-34.012z"/>
		<path fill="#005A9C" d="M230.392-34.229v-12.642h2.656v12.642H230.392z"/>
		<path fill="#005A9C" d="M243.144-34.612c-0.766,0.418-1.475,0.583-2.529,0.583c-1.908,0-3.146-0.527-4.111-1.782
			c-0.965-1.235-1.455-2.838-1.455-4.692c0-2.73,1.037-4.913,2.855-5.914c0.746-0.398,1.674-0.616,2.621-0.616
			c3.365,0,5.438,2.455,5.438,6.42C245.962-37.758,244.979-35.612,243.144-34.612z M242.708-43.47c-0.201-0.637-0.873-1.6-2.221-1.6
			c-0.855,0-1.6,0.437-1.963,1.108c-0.438,0.819-0.639,1.929-0.639,3.457c0,2.182,0.365,3.545,1.129,4.093
			c0.4,0.29,0.91,0.436,1.51,0.436c1.764,0,2.51-1.346,2.51-4.564C243.034-41.833,242.925-42.76,242.708-43.47z"/>
		<path fill="#005A9C" d="M254.091-34.229l-2.164-4.838c-0.709-1.583-1.471-3.365-1.707-4.147c0.09,1.037,0.107,2.529,0.127,3.583
			l0.072,5.402h-2.455v-12.642h2.818l2.418,5.055c0.637,1.349,1.129,2.675,1.383,3.585c-0.092-0.982-0.184-2.603-0.199-3.475
			l-0.055-5.167h2.418v12.642h-2.656V-34.229z"/>
		<path fill="#005A9C" d="M259.292-34.229v-12.642h7.205l-0.328,2.073h-4.33v2.928h3.621v2.073h-3.584v3.384h4.785v2.182h-7.369
			V-34.229z"/>
		<path fill="#005A9C" d="M271.698-33.956c-1.438,0-3.037-0.418-4.311-1.146l0.945-1.982c1.182,0.617,2.199,1.019,3.473,1.019
			c1.455,0,2.221-0.601,2.221-1.729c0-0.818-0.527-1.327-1.656-1.637l-1.4-0.383c-1.256-0.347-2.037-0.836-2.492-1.601
			c-0.344-0.563-0.525-1.219-0.525-1.928c0-2.31,1.855-3.911,4.527-3.911c1.547,0,3.111,0.473,4.221,1.272l-1.201,1.82
			c-1.145-0.69-2-0.964-2.945-0.964c-1.037,0-1.766,0.6-1.766,1.454c0,0.655,0.348,0.983,1.4,1.274l1.529,0.418
			c2.072,0.564,3.203,1.893,3.203,3.766C276.919-35.648,274.845-33.956,271.698-33.956z"/>
		<path fill="#005A9C" d="M282.647-34.229v-12.642h7.201l-0.326,2.073h-4.33v2.928h3.621v2.073h-3.582v3.384h4.783v2.182h-7.367
			V-34.229z"/>
		<path fill="#005A9C" d="M295.56-34.229v-12.642h2.656v12.642H295.56z"/>
		<path fill="#005A9C" d="M310.966-34.229l-0.475-6.748c-0.055-0.801-0.09-1.438-0.09-2.111c-0.146,0.729-0.254,1.183-0.475,1.948
			l-2,6.911h-2.162l-1.803-6.64c-0.164-0.617-0.381-1.509-0.51-2.236c0,0.746-0.035,1.491-0.09,2.272l-0.438,6.604h-2.529
			l1.184-12.642h3.256l1.654,6.331c0.234,0.908,0.326,1.345,0.438,2c0.107-0.655,0.254-1.31,0.453-2.058l1.711-6.273h3.238
			l1.127,12.642H310.966z"/>
		<path fill="#005A9C" d="M322.37-34.229l-0.893-3.001h-3.711l-0.891,3.001h-2.656l4.146-12.678h2.748l3.984,12.678H322.37z
			 M320.169-41.887c-0.127-0.583-0.51-2.237-0.51-2.237s-0.363,1.49-0.602,2.438c-0.234,0.908-0.4,1.509-0.672,2.345h2.473
			C320.86-39.342,320.44-40.668,320.169-41.887z"/>
		<path fill="#005A9C" d="M331.337-34.084c-1.893,0-3.293-0.618-4.313-1.928c-0.928-1.183-1.346-2.528-1.346-4.419
			c0-2.675,0.873-4.566,2.639-5.75c0.928-0.616,1.873-0.89,3.072-0.89c1.529,0,2.91,0.489,4.021,1.453l-1.346,1.584
			c-0.818-0.674-1.676-0.983-2.639-0.983c-0.744,0-1.381,0.219-1.818,0.637c-0.855,0.818-1.074,2.184-1.074,4.075
			c0,1.802,0.311,2.965,0.945,3.601c0.475,0.455,1.164,0.709,1.984,0.709c0.564,0,1.02-0.091,1.438-0.309v-2.875h-1.93l-0.326-2.072
			h4.893v6.039C334.245-34.447,332.827-34.084,331.337-34.084z"/>
		<path fill="#005A9C" d="M337.901-34.229v-12.642h7.203l-0.326,2.073h-4.33v2.928h3.619v2.073h-3.582v3.384h4.783v2.182h-7.367
			V-34.229z"/>
		<path fill="#005A9C" d="M353.034-34.229l-2.166-4.838c-0.709-1.583-1.473-3.365-1.709-4.147c0.092,1.037,0.107,2.529,0.129,3.583
			l0.072,5.402h-2.455v-12.642h2.82l2.416,5.055c0.639,1.349,1.129,2.675,1.385,3.585c-0.092-0.982-0.184-2.603-0.201-3.475
			l-0.055-5.167h2.42v12.642h-2.656V-34.229z"/>
		<path fill="#005A9C" d="M368.62-39.304c-0.58,0.272-1.127,0.418-2.527,0.418h-1.402v4.656h-2.545v-12.642h3.328
			c2.146,0,2.803,0.218,3.51,0.618c1.184,0.654,1.82,1.819,1.82,3.273C370.804-41.306,370.003-39.959,368.62-39.304z
			 M366.312-44.815h-1.619v3.856h1.328c1.037,0,1.346-0.128,1.691-0.655c0.219-0.345,0.309-0.71,0.309-1.31
			C368.021-44.106,367.384-44.815,366.312-44.815z"/>
		<path fill="#005A9C" d="M378.442-34.229l-0.893-3.001h-3.711l-0.891,3.001h-2.656l4.148-12.678h2.746l3.982,12.678H378.442z
			 M376.241-41.887c-0.127-0.583-0.508-2.237-0.508-2.237s-0.365,1.49-0.602,2.438c-0.236,0.908-0.4,1.509-0.672,2.345h2.473
			C376.935-39.342,376.515-40.668,376.241-41.887z"/>
		<path fill="#005A9C" d="M382.407-47.271l-0.746-1.348l3.766-2.364l1.055,1.893L382.407-47.271z M382.388-34.229v-12.642h2.656
			v12.642H382.388z"/>
		<path fill="#005A9C" d="M391.083-33.956c-1.438,0-3.037-0.418-4.313-1.146l0.947-1.982c1.184,0.617,2.199,1.019,3.475,1.019
			c1.455,0,2.219-0.601,2.219-1.729c0-0.818-0.527-1.327-1.654-1.637l-1.402-0.383c-1.254-0.347-2.037-0.836-2.49-1.601
			c-0.346-0.563-0.527-1.219-0.527-1.928c0-2.31,1.855-3.911,4.529-3.911c1.545,0,3.109,0.473,4.221,1.272l-1.201,1.82
			c-1.146-0.69-2.002-0.964-2.947-0.964c-1.035,0-1.764,0.6-1.764,1.454c0,0.655,0.346,0.983,1.4,1.274l1.527,0.418
			c2.074,0.564,3.201,1.893,3.201,3.766C396.304-35.648,394.229-33.956,391.083-33.956z"/>
	</g>
</g>
</svg>
