<?xml version="1.0" encoding="UTF-8"?>
<svg id="Capa_1" data-name="Capa 1" xmlns="http://www.w3.org/2000/svg" viewBox="0 0 625.05 322.18">
  <defs>
    <style>
      .cls-1 {
        fill: #491e04;
        stroke-width: 0px;
      }
    </style>
  </defs>
  <path class="cls-1" d="M360.78,73.79s.07-.03,0,0"/>
  <path class="cls-1" d="M435.09,116.8c.05-.01.09-.01.1,0,0,0-.04,0-.1,0"/>
  <path class="cls-1" d="M79.51,273.68v-57.46l-7.76-7.44h33.38c14.99,0,22.74,10.34,22.74,20.26s-5.79,18.29-15.71,20.57l15.19,23.15,9.2,8.37h-16.43l-19.12-30.9h-11.16v23.46l7.65,7.44h-25.74l7.76-7.44ZM116.82,229.04c0-8.68-4.85-15.09-14.88-15.09h-12.09v31.32h11.88c10.44,0,15.09-7.75,15.09-16.23"/>
  <path class="cls-1" d="M173.97,208.78l26.97,65.62,8.47,6.72h-29.56l9.41-6.72-6.2-15.09h-28.01l-5.99,15.09,9.82,6.72h-25.42l8.78-6.61,23.67-57.36-3.41-8.37h11.47ZM180.79,253.63l-11.88-29.25-11.58,29.25h23.46Z"/>
  <polygon class="cls-1" points="256.22 208.78 277.41 208.78 269.76 216.22 269.76 284.43 223.98 217.56 223.98 273.69 231.63 281.12 210.44 281.12 218.19 273.69 218.19 216.22 210.44 208.78 230.69 208.78 263.97 256.22 263.97 216.22 256.22 208.78"/>
  <path class="cls-1" d="M339.97,213.84l-.31,22.43-9.31-18.08c-2.58-3.21-7.23-6.1-13.85-6.1-14.68,0-24.08,12.81-24.08,32.14,0,20.46,11.16,30.69,24.8,30.69,10.75,0,19.64-4.85,25.53-16.74-2.07,14.27-11.67,24.8-27.9,24.8-19.12,0-33.28-14.05-33.28-37.72s14.47-38.34,34.93-38.34c10.95,0,18.5,3.72,23.46,6.92"/>
  <polygon class="cls-1" points="373.14 281.12 347.4 281.12 355.16 273.68 355.16 216.22 347.4 208.78 373.14 208.78 365.49 216.22 365.49 239.58 400.63 239.58 400.63 216.22 392.88 208.78 418.61 208.78 410.96 216.22 410.96 273.68 418.61 281.12 392.88 281.12 400.63 273.68 400.63 245.78 365.49 245.78 365.49 273.68 373.14 281.12"/>
  <path class="cls-1" d="M491.36,244.95c0,22.84-13.12,38.03-33.79,38.03s-33.79-15.19-33.79-38.03,13.12-38.03,33.79-38.03,33.79,15.29,33.79,38.03M457.56,277.82c16.53,0,22.53-13.13,22.53-32.87s-6-32.86-22.53-32.86-22.53,13.23-22.53,32.86,5.99,32.87,22.53,32.87"/>
  <path class="cls-1" d="M544.37,260.04c0,10.75-7.96,22.94-25.94,22.94-8.78,0-17.67-3.1-21.91-5.78v-18.5l9.51,14.06c3.82,3.62,8.47,5.37,13.02,5.37,10.96,0,16.84-6.72,16.84-13.53,0-8.78-7.12-13.33-19.12-17.88-10.33-3.93-18.81-9.51-18.81-20.88s10.02-18.9,23.25-18.9c7.24,0,14.06,2.27,18.4,4.54l-.31,17.16-7.65-12.81c-3.2-2.69-6.93-4.24-11.58-4.24-7.55,0-13.53,4.13-13.53,10.95,0,7.55,5.99,10.23,16.53,14.36,15.71,6.21,21.29,13.13,21.29,23.15"/>
  <g>
    <path class="cls-1" d="M241.33,314.56c0,5.04-3.88,9.04-9.31,9.04s-9.31-4.01-9.31-9.04v-14.81h4.01v14.55c0,3.05,2.15,5.5,5.3,5.5s5.3-2.45,5.3-5.5v-14.55h4.01v14.81Z"/>
    <path class="cls-1" d="M248.55,323.21v-23.46h9.54c4.41,0,7.65,2.85,7.65,7.26,0,3.21-1.92,5.67-4.74,6.66l4.77,9.54h-4.51l-4.31-9.01-4.41.03v8.98h-4.01ZM257.4,310.92c2.52,0,4.21-1.49,4.21-3.84s-1.69-3.81-4.18-3.81h-4.87v7.65h4.84Z"/>
    <path class="cls-1" d="M290.44,314.56c0,5.04-3.88,9.04-9.31,9.04s-9.31-4.01-9.31-9.04v-14.81h4.01v14.55c0,3.05,2.15,5.5,5.3,5.5s5.3-2.45,5.3-5.5v-14.55h4.01v14.81Z"/>
    <path class="cls-1" d="M300.34,311.44c0,4.74,3.54,8.32,8.08,8.32,3.71,0,7.16-1.99,7.42-6.13h-7.26v-3.38h11.2c.13.76.2,1.49.2,2.22,0,6.33-4.97,11.13-11.63,11.13s-12.13-5.27-12.13-12.13,5.23-12.13,12.13-12.13c4.41,0,7.79,1.86,9.91,4.81l-3.01,2.48c-1.56-2.25-3.68-3.45-6.89-3.45-4.34,0-8.02,3.41-8.02,8.25Z"/>
    <path class="cls-1" d="M344.14,314.56c0,5.04-3.88,9.04-9.31,9.04s-9.31-4.01-9.31-9.04v-14.81h4.01v14.55c0,3.05,2.15,5.5,5.3,5.5s5.3-2.45,5.3-5.5v-14.55h4.01v14.81Z"/>
    <path class="cls-1" d="M364.26,318.64h-10.04l-1.96,4.57h-4.24l10.64-23.79h1.19l10.64,23.79h-4.27l-1.95-4.57ZM362.83,315.26l-3.61-8.52-3.58,8.52h7.19Z"/>
    <path class="cls-1" d="M378.11,312.7l-8.35-12.96h4.51l5.83,9.34,5.86-9.34h4.51l-8.35,12.92v10.54h-4.01v-10.5Z"/>
  </g>
  <g>
    <path class="cls-1" d="M16.3,231.2v3.55H5.4v6.33h9.01v3.51H5.4v6.49h11.26v3.58H1.42v-23.46h14.88Z"/>
    <path class="cls-1" d="M27.5,234.45c-2.19,0-3.74,1.09-3.74,2.75,0,2.05,2.19,2.78,5.04,4.11,3.81,1.69,6.69,3.01,6.69,7.12,0,3.55-2.95,6.59-8.12,6.59-3.51,0-6.66-1.66-8.28-4.57l3.08-2.29c1.23,2.15,3.15,3.18,5.27,3.18,2.52,0,4.01-1.36,4.01-2.78,0-2.15-1.99-2.75-5.17-4.21-3.35-1.52-6.53-2.85-6.53-7.02,0-3.64,3.25-6.53,7.82-6.53,2.85,0,5.86,1.23,7.49,4.11l-2.98,2.15c-1.19-1.89-2.92-2.62-4.57-2.62Z"/>
    <path class="cls-1" d="M44.06,234.78h-6.86v-3.58h17.69v3.58h-6.83v19.88h-4.01v-19.88Z"/>
    <path class="cls-1" d="M55.33,252.74c0-1.29,1.03-2.29,2.32-2.29s2.32.99,2.32,2.29-1.03,2.32-2.32,2.32-2.32-1.03-2.32-2.32Z"/>
  </g>
  <g>
    <path class="cls-1" d="M559.44,238.36v-3.91l7.85-3.38h1.36v23.59h-4.01v-18.46l-5.2,2.15Z"/>
    <path class="cls-1" d="M588.86,238.89c0,2.72-1.33,4.74-2.88,7.09l-5.77,8.68h-4.7l5.9-8.55c-.33.17-.9.3-1.66.3-4.04-.07-7.32-3.28-7.32-7.62,0-4.61,3.74-8.02,8.25-7.99,4.77,0,8.18,3.38,8.18,8.08ZM576.37,238.75c0,2.52,1.92,4.31,4.21,4.31,2.52,0,4.31-1.86,4.31-4.18,0-2.62-1.82-4.44-4.21-4.44s-4.31,1.82-4.31,4.31Z"/>
    <path class="cls-1" d="M603.11,247.1c0-2.62-1.86-4.34-4.74-4.34-1.76,0-2.85.53-4.01,1.79l-1.89-.83,1.29-12.52h12.06v3.51h-8.78l-.56,5.17c.7-.33,1.59-.46,2.52-.46,4.97,0,8.22,3.05,8.22,7.59,0,4.77-3.45,8.05-8.38,8.05-3.58,0-6.46-1.72-7.99-4.74l3.18-2.12c.89,1.96,2.48,3.11,4.67,3.11,2.65,0,4.41-1.72,4.41-4.21Z"/>
    <path class="cls-1" d="M625.61,237.36c0,2.45-1.56,4.51-3.11,5.2,1.82.7,3.98,2.62,3.98,5.63,0,3.91-3.58,6.86-8.28,6.86s-8.28-2.95-8.28-6.86c0-3.01,2.15-4.94,3.98-5.63-1.56-.7-3.12-2.75-3.12-5.2,0-3.94,3.45-6.56,7.42-6.56s7.42,2.62,7.42,6.56ZM613.98,247.93c0,2.02,1.76,3.58,4.21,3.58s4.21-1.56,4.21-3.58c0-2.12-1.79-3.61-4.21-3.61s-4.21,1.49-4.21,3.61ZM614.71,237.49c0,2.02,1.66,3.31,3.48,3.31s3.48-1.29,3.48-3.31-1.66-3.15-3.48-3.15-3.48,1.19-3.48,3.15Z"/>
  </g>
  <g>
    <path class="cls-1" d="M349.79,73.09c6.69-2.98,14.97,3.18,20.73-2.86,1.18-1.22.29-3.42-1.35-3.43-9.84-1.2-19.82-1.53-29.55-3.59,12.97-4.38,15.53-18.86,25.17-19.49.94.11,1.97-.34,2.2-1.42-.07-5.95-15.61-1.81-18.95-.11-5.09,2.61-9.3,6.99-15.41,6.16,5.52-8.64,11.22-17.3,17.27-25.43,1.13-1.98-1.44-4.08-2.99-2.46-7.61,7.02-15.38,13.71-23.48,20.11,1.08-8.98,6.9-16.38,7.65-25.42-.31-3.09,2.79-11.29-.71-12.31-3.41.06-2.03,5.46-3.61,7.72-3.43,9.25-14.16,9.94-16.28,20.42-2.03-9.08-4.38-18.22-4.32-27.61.08-2.24-3.29-2.75-3.75-.54-1.38,9.97-2.75,19.95-4.13,29.92-5.24-14.42-14.57-11.02-17.56-28.33-6.49-5.44-3.19,16.89-1.2,19.28,3.79,5.4,5.84,11.48,6.57,18.14-8.77-6.97-17.18-14.57-25.54-21.97-2.07-1.08-3.65,2.25-1.85,3.63,5.47,8.05,10.95,16.1,16.42,24.15-6.1.53-8.68-3.88-13.32-6.63-4.55-2.05-9.49-.44-14.2-.22-2.01-.23-5.81-1.82-6.47,1.17-.13,1,.45,1.9,1.37,2.21,15.69.62,13.78,13.04,25.74,17.64-6.03,1.25-11.84,3.41-17.73,5.19-3.29-.05-6.57-.68-9.67,1.06-1.68.85-.89,3.89.96,3.75,1.58-.12,3.15-.24,4.72-.37,7.8-.29,15.47,3.05,23.41,3.03-8.66,3.12-11.82,15.06-19.84,17.97-13.73,2.88-4.82,8.1,3.46,5.14,8.89-2.46,15.07-11.49,24.85-10.78-4.08,10.4-11.96,18.15-17.75,27.41-1.15,1.91,1.53,4.15,3,2.44,1.05-1.22,2.22-2.3,3.45-3.32,0,0,.47-.38.47-.38,6.74-4.88,11.79-11.78,18.6-16.6-.24,2.16-.25,4.35-.5,6.51-.04.39-.43,2.53-.81,3.32-2.64,4.42-6.96,7.75-7.65,13.33-.28,3.32-2.18,13.17,1.25,14.52,2.75.12,2.47-3.96,3.61-5.82,1.03-2.42,1.94-5.18,4.02-6.85,5.26-3.29,9.59-8.04,12.36-13.8,1.53,9.37,2.63,18.81,3.91,28.22.35,1.91,3.32,1.92,3.68,0,1.38-10,2.77-19.99,4.15-29.99,2.13,11.32,8.16,11.32,14.76,17.96,1.85,2.73,2.43,6.11,3.06,9.33,7.05,7.66,2.11-16.72.4-19.05-2.73-4.91-5.47-9.87-5.31-15.79,8.05,6.32,16.18,12.51,24.27,18.78,1.81,1.21,3.86-1.58,2.31-3.16-6.66-7.96-14.04-15.46-18.17-25.27,3.51.8,7.12,1.2,10.53,2.37.01,0,.58.25.58.25,4.23,2.82,7.93,6.76,13.3,6.76,2.56-.09,15.1,2.46,10.64-3.33-3.37-1.7-7.41-1.41-10.56-3.62-1.56-1.3-2.27-3.35-3.2-5.13-2.42-4.72-6.31-8.22-10.74-10.7,2.66-.32,5.2-1.24,7.73-2.11"/>
    <path class="cls-1" d="M227.43,74.87c-3.63-3.26-9.39-9.36-14.59-11.45-4.14-1.66-7.94-.78-10.03,6.09-5.56-8.55-24.59-4.27-21.28-17.71.73-2.07,3.23-1.28,4.82-1.19,2.95,1.03,6.74.57,8.99.15,1.65.88,3.26,2.46,5.24,1.88,2.35-.99,5.6-4.06,4-6.93-3.36-2.76-7.55-4.45-11.2-6.81-.12-2.37-1.45-4.48-3.29-5.82-.62-4.09-7.88-10.26-9.44-4.41-2.3.39-5.49,1.07-7.14,1.66-4.5-1.77-11.21.44-14.27,5.15-2.58,4.09.5,7.27-2.58,10.9-3.08,3.63-6.46,6.82-6.46,17.72,0,7.32,3.41,14.71,5.69,19.02,1.41,4.16-1.7,4.39-.52,6.87,1.13,2.37,8.59-1.14,12.58-2.59.34.87.35,1.6.39,1.68-2.95,9.55-12.28,9.72-16.62,17.28-8.71-8.48-23.97-.2-24.48,12.4-.16,3.03,1.78,6.76-.39,9.31.11-.09-.06.08-.11.12.01-.01.02-.02.02-.03-12.7,4.9,1.43,15.75-6.86,23.71-3.02,9.65,17.96-2.47,15.25-15.23,9.67-4.67,12.38-11.59,9.11-22.39.04-.11.09-.29.05-.22.13-.32.51-.61.79-.75.94-.48,3.53.4,4.62,1.57,0,.55.15,2.37.19,2.95.06,6.13,7.3,11,4.32,16.88,0-.01-.26.67-.26.67-1.81,4.65-5.7,8.4-1.7,13.14,1.35,2.96,3.46,5.64,4.31,8.8.38,3.19,1.33,9,5.6,6.87.32.28.64.57.95.86.84,8.01,4.17,6.93,10.47,6.64,4.87-2.95-3.4-11.47-7.36-10.73-10.07-8.87-9.04-16.11-1.08-25.85,2.19-1,4.04-2.76,5.5-4.76,7.19,3.63.76,14.36,6.76,18.2,3.55,2.21,6.63,6.13,10.5,7.35,3.68,1.49,4.55,4.64,5.73,8.14,1.52,2.03,4.91.86,7.15,1.72,7.73.03.62-9.94-3.65-10.32-1.41-3.03-4.78-4.42-7.87-4.44-4.48-3.12-9-6.78-7.59-13.06,0,.02.06-.28.04-.33,3.84-4.41,5.49-12.73.64-17.53-.67-.79-.67-1.85-.71-2.85,8.74-3.62,16.84-10.13,21.23-18.96,2.99.67,5.86-.61,7.97-2.85,2.37-1.18,3.24,2.64,4.49,3.96.03,1.66,1.58,3.25,1.71,5.24-.3.13-.53.4-.78.62-1.95-.92-6.19,1.63-5.14,4.16-5.11,2.08-4.19.34-5.46,6.51-3.05,6.83,2.7,6.73,6.75,3.62,2.52-1.93,4.21-5.11,6.27-7.33,1.93-1.9,4.13-4.23,3.85-7.24-.93-2.1-2.39-6.48-2.95-8.71-.57-6.32-5.29-16.06-11.8-8.74l.03.02c-.58.36-1.09.81-1.77.95.81-2.99.42-7.7-.52-10.62v.04c1.28-.76,2.06-2.11,2.77-3.41,2.85-5.91,9.03-.41,12.72,1.71,3.93,2.37-1,3.51-1.24,6.22.3,1.17,1.3,2.4,1.92,3.42.57.48,1.91,1.57,2.54,1.97l1.84.02c2.74-3.2,4.04-9.38,1.37-12.94"/>
    <path class="cls-1" d="M383.55,74.87c3.63-3.26,9.39-9.36,14.59-11.45,4.14-1.66,7.94-.78,10.03,6.09,5.56-8.55,24.59-4.27,21.28-17.71-.73-2.07-3.23-1.28-4.82-1.19-2.95,1.03-6.74.57-8.99.15-1.65.88-3.26,2.46-5.24,1.88-2.35-.99-5.6-4.06-4-6.93,3.36-2.76,7.55-4.45,11.2-6.81.12-2.37,1.45-4.48,3.29-5.82.62-4.09,7.88-10.26,9.44-4.41,2.3.39,5.49,1.07,7.14,1.66,4.5-1.77,11.21.44,14.27,5.15,2.58,4.09-.5,7.27,2.58,10.9,3.08,3.63,6.46,6.82,6.46,17.72,0,7.32-3.41,14.71-5.69,19.02-1.41,4.16,1.7,4.39.52,6.87-1.13,2.37-8.59-1.14-12.58-2.59-.34.87-.35,1.6-.39,1.68,2.95,9.55,12.28,9.72,16.62,17.28,8.71-8.48,23.97-.2,24.48,12.4.16,3.03-1.78,6.76.39,9.31-.11-.09.06.08.11.12-.01-.01-.02-.02-.02-.03,12.7,4.9-1.43,15.75,6.86,23.71,3.02,9.65-17.96-2.47-15.25-15.23-9.67-4.67-12.38-11.59-9.11-22.39-.04-.11-.09-.29-.05-.22-.13-.32-.51-.61-.79-.75-.94-.48-3.53.4-4.62,1.57,0,.55-.15,2.37-.19,2.95-.06,6.13-7.3,11-4.32,16.88,0-.01.26.67.26.67,1.81,4.65,5.7,8.4,1.7,13.14-1.35,2.96-3.46,5.64-4.31,8.8-.38,3.19-1.33,9-5.6,6.87-.32.28-.64.57-.95.86-.84,8.01-4.17,6.93-10.47,6.64-4.88-2.95,3.39-11.47,7.36-10.73,10.07-8.87,9.04-16.11,1.08-25.85-2.19-1-4.04-2.76-5.5-4.76-7.19,3.63-.76,14.36-6.76,18.2-3.55,2.21-6.63,6.13-10.49,7.35-3.68,1.49-4.55,4.64-5.73,8.14-1.53,2.03-4.91.86-7.15,1.72-7.73.03-.62-9.94,3.65-10.32,1.41-3.03,4.78-4.42,7.87-4.44,4.48-3.12,9-6.78,7.59-13.06,0,.02-.06-.28-.04-.33-3.84-4.41-5.49-12.73-.64-17.53.67-.79.67-1.85.71-2.85-8.74-3.62-16.84-10.13-21.23-18.96-2.99.67-5.86-.61-7.97-2.85-2.37-1.18-3.23,2.64-4.49,3.96-.03,1.66-1.58,3.25-1.71,5.24.3.13.53.4.78.62,1.95-.92,6.19,1.63,5.14,4.16,5.11,2.08,4.19.34,5.46,6.51,3.05,6.83-2.7,6.73-6.75,3.62-2.52-1.93-4.21-5.11-6.27-7.33-1.93-1.9-4.13-4.23-3.85-7.24.93-2.1,2.39-6.48,2.95-8.71.57-6.32,5.29-16.06,11.8-8.74l-.03.02c.58.36,1.09.81,1.77.95-.81-2.99-.42-7.7.52-10.62v.04c-1.28-.76-2.06-2.11-2.77-3.41-2.85-5.91-9.03-.41-12.72,1.71-3.93,2.37,1,3.51,1.24,6.22-.3,1.17-1.3,2.4-1.92,3.42-.57.48-1.91,1.57-2.54,1.97l-1.84.02c-2.74-3.2-4.04-9.38-1.37-12.94"/>
  </g>
  <g>
    <path class="cls-1" d="M281.13,183.47l-.57,14.18h-30.13l4.3-4.71v-30.77l-4.3-4.71h16.59l-4.25,4.71v30.31h12.69l5.68-9.01Z"/>
    <path class="cls-1" d="M324.23,177.56c0,12.69-7.92,21.12-19.69,21.12s-19.69-8.44-19.69-21.12,7.92-21.12,19.69-21.12,19.69,8.49,19.69,21.12ZM304.55,193.28c6.89,0,11.08-4.76,11.08-15.73s-4.19-15.73-11.08-15.73-11.08,4.82-11.08,15.73,4.19,15.73,11.08,15.73Z"/>
    <path class="cls-1" d="M359.37,185.94c0,5.97-4.65,12.74-15.27,12.74-5.28,0-10.68-2.07-13.03-3.56v-12.23l6.14,7.81c2.12,2.01,4.71,2.98,7.23,2.98,5.34,0,7.92-2.64,7.92-5.57s-1.67-4.94-8.44-7.29c-6.6-2.3-12.17-5.51-12.17-12.86s5.57-11.54,13.89-11.54c4.53,0,8.67,1.55,11.08,2.81l-.17,11.54-5.11-7.12c-1.78-1.49-3.9-2.35-6.49-2.35-3.96,0-6.14,2.3-6.14,4.82,0,3.04,1.89,4.53,8.61,6.83,9.13,3.1,11.94,7.86,11.94,12.97Z"/>
  </g>
</svg>