<svg xmlns="http://www.w3.org/2000/svg" viewBox="0 0 59.78 17.58"><defs><style>.cls-1{fill:#1d1d1b;}</style></defs><g id="Capa_2" data-name="Capa 2"><g id="home"><path class="cls-1" d="M2.91,7.22H9.23v2.89H2.91v7.23H0V0H10.61V2.89H2.91Z"/><path class="cls-1" d="M15.45,4.57V6h.05a3,3,0,0,1,2.79-1.5,2.8,2.8,0,0,1,1,.2V7.42a2.73,2.73,0,0,0-1-.2,2.77,2.77,0,0,0-2.84,3v7.16H12.68V4.57Z"/><path class="cls-1" d="M20.23,11a6.26,6.26,0,1,1,12.5,0,6.26,6.26,0,1,1-12.5,0Zm9.64,0c0-2.29-1.46-3.9-3.39-3.9S23.09,8.69,23.09,11s1.45,3.9,3.39,3.9S29.87,13.27,29.87,11Z"/><path class="cls-1" d="M52.29,9.05v8.29H49.52v-8c0-1.44-.74-2.31-2-2.31C46,7,45,8.33,45,10.31v7H42.28v-8c0-1.44-.74-2.31-2-2.31-1.53,0-2.52,1.3-2.52,3.28v7H35V4.57H37.8V6.16h.05a3.68,3.68,0,0,1,3.2-1.78A3.39,3.39,0,0,1,44.26,6.5a4.82,4.82,0,0,1,4.22-2.12C50.81,4.38,52.29,6.26,52.29,9.05Z"/><path class="cls-1" d="M54.37,14.55h5.41v2.77H54.37Z"/></g></g></svg>