<svg viewBox="0 0 59.78 17.58" xmlns="http://www.w3.org/2000/svg"><g fill="#1d1d1b"><path d="m2.91 7.22h6.32v2.89h-6.32v7.23h-2.91v-17.34h10.61v2.89h-7.7z"/><path d="m15.45 4.57v1.43h.05a3 3 0 0 1 2.79-1.5 2.8 2.8 0 0 1 1 .2v2.72a2.73 2.73 0 0 0 -1-.2 2.77 2.77 0 0 0 -2.84 3v7.16h-2.77v-12.81z"/><path d="m20.23 11a6.26 6.26 0 1 1 12.5 0 6.26 6.26 0 1 1 -12.5 0zm9.64 0c0-2.29-1.46-3.9-3.39-3.9s-3.39 1.59-3.39 3.9 1.45 3.9 3.39 3.9 3.39-1.63 3.39-3.9z"/><path d="m52.29 9.05v8.29h-2.77v-8c0-1.44-.74-2.31-2-2.31-1.52-.03-2.52 1.3-2.52 3.28v7h-2.72v-8c0-1.44-.74-2.31-2-2.31-1.53 0-2.52 1.3-2.52 3.28v7h-2.76v-12.71h2.8v1.59h.05a3.68 3.68 0 0 1 3.2-1.78 3.39 3.39 0 0 1 3.21 2.12 4.82 4.82 0 0 1 4.22-2.12c2.33 0 3.81 1.88 3.81 4.67z"/><path d="m54.37 14.55h5.41v2.77h-5.41z"/></g></svg>