<svg enable-background="new 0 0 699.3 256.4" viewBox="0 0 699.3 256.4" xmlns="http://www.w3.org/2000/svg"><path d="m0 0h699v256.8h-699z" fill="#05141f"/><path d="m396.1 180.8c0 1.1.3 1.7 1 1.7.5 0 .9-.2 1.4-.5l180.4-117.3c3.2-2.1 6.1-3.2 10.4-3.2h39.7c6.1 0 10.2 4.1 10.2 10.2v75.7c0 9.1-2 14.4-10.2 19.3l-48.1 28.9c-.6.4-1.2.6-1.6.6-.6 0-1.1-.4-1.1-2.1v-88.4c0-1-.3-1.7-1-1.7-.5 0-.9.2-1.4.5l-131.9 85.7c-3.7 2.4-6.7 3.1-10.1 3.1h-87.5c-6.1 0-10.2-4.1-10.2-10.2v-109c0-.8-.4-1.5-1-1.5-.5 0-.9.2-1.4.5l-87 52.3c-.9.5-1.1 1-1.1 1.4s.1.7.8 1.3l62.1 62.1c.8.8 1.4 1.5 1.4 2.1 0 .7-.9 1.1-2 1.1h-56.2c-4.4 0-7.8-.7-10.2-3.1l-37.7-37.7c-.4-.4-.7-.6-1.1-.6-.3 0-.8.2-1.2.4l-63 37.9c-3.8 2.3-6.4 3-10.2 3h-58c-6.1 0-10.2-4.1-10.2-10.2v-74.3c0-9.2 2-14.4 10.2-19.3l48.4-29.1c.5-.3.9-.4 1.3-.4.7 0 1.1.8 1.1 2.4v99.4c0 1 .3 1.5 1 1.5.4 0 .9-.3 1.4-.6l163.5-98.3c3.9-2.3 6.3-3 10.8-3h88c6.1 0 10.2 4.1 10.2 10.2z" fill="#fff"/></svg>