<svg enable-background="new 0 -134.5 430.5 116.5" height="116.5" viewBox="0 -134.5 430.5 116.5" width="430.5" xmlns="http://www.w3.org/2000/svg"><path d="m7.562-129.428c-5.436 12.155-8.438 26.187-7.335 41.394 2.946 40.55 31.691 72.182 63.391 69.903 17.906-1.323 33.188-13.066 42.557-30.361 2.127-3.975 1.252-6.221-2.083-2.724-41.587 43.978-93.553-2.042-95.433-54.007-.626-8.357-.208-16.476.971-24.206.558-3.439-.972-2.471-2.068.001" fill="#00549c"/><path d="m74.045-105.307c2.193 1.5 4.335 2.786 6.934 2.648.294-.025.822.042 1.071.463.111.246.361.712-.169 1.324-2.112 2.171-5.448 3.788-9.016 4.446 1.11 2.39 2.37 4.562 4.683 5.74.274.148.718.467.685.941 0 .277-.031.803-.8 1.071-2.917.847-6.6.566-10.034-.682-.204 2.638-.249 5.146 1.184 7.28.181.264.391.767.142 1.193-.142.22-.463.671-1.24.532-2.973-.746-5.978-2.78-8.341-5.585-1.528 2.157-2.78 4.308-2.639 6.909.025.291-.04.819-.457 1.089-.267.091-.751.351-1.364-.191-2.185-2.109-3.753-5.396-4.41-8.987-2.373 1.125-4.559 2.365-5.741 4.66-.152.272-.471.692-.967.692-.241 0-.779-.092-1.076-.768-.816-2.959-.526-6.615.712-10.049-2.642-.208-5.13-.237-7.328 1.188-.28.177-.734.388-1.167.138-.204-.138-.679-.46-.539-1.24.749-2.982 2.819-5.978 5.614-8.341-2.187-1.539-4.326-2.79-6.937-2.643-.317.028-.819-.039-1.069-.462-.141-.258-.351-.761.181-1.364 2.114-2.185 5.391-3.759 9.005-4.398-1.111-2.389-2.363-4.573-4.68-5.756-.28-.149-.712-.475-.688-.974 0-.253.051-.779.783-1.067 2.934-.836 6.614-.542 10.049.678.224-2.613.252-5.146-1.185-7.319-.177-.253-.388-.716-.137-1.142.137-.248.474-.688 1.248-.545 2.938.75 5.97 2.828 8.332 5.617 1.528-2.183 2.781-4.321 2.652-6.946-.054-.314.031-.825.463-1.068.233-.141.732-.354 1.346.189 2.198 2.098 3.751 5.396 4.393 8.999 2.407-1.103 4.586-2.354 5.754-4.676.157-.288.491-.726.971-.679.253 0 .78.028 1.074.78.837 2.94.539 6.587-.722 10.018 2.654.252 5.154.28 7.34-1.181.249-.155.751-.359 1.166-.106.225.141.679.471.54 1.245-.752 2.924-2.818 5.975-5.616 8.329" fill="#ffc341"/><path d="m49.235-47.085c-4.586-2.187-5.255-5.255 1.694-5.185 39.927.274 57.07-44.909 56.414-79.551-.066-2.971 1.212-4.017 2.418-.183 2.019 6.234 3.318 12.947 3.854 19.965 2.612 36.083-17.225 67.164-44.16 69.134-7.044.518-13.824-1.132-20.22-4.18" fill="#00549c"/><g fill="#005a9c"><path d="m351.397-85.13h-5.171l-4.797-13.21-9.688 13.21h-5.644l13.687-17.398-5.691-14.955h5.174l3.839 11.053 7.916-11.053h5.551l-11.851 15.423z"/><path d="m375.663-85.13h-5.172l-4.799-13.21-9.687 13.21h-5.643l13.682-17.398-5.686-14.955h5.17l3.842 11.053 7.918-11.053h5.545l-11.85 15.423z"/><path d="m379.376-85.13 6.865-32.353h4.563l-6.961 32.353z"/><path d="m173.436-92.153c-.033.362-.089.699-.174 1.01-.083.312-.189.648-.319 1.01-.23.691-.618 1.414-1.155 2.168-.544.754-1.283 1.453-2.216 2.092-.938.641-2.09 1.165-3.451 1.578-1.362.409-2.965.616-4.803.616-2.661 0-4.918-.387-6.774-1.159-1.855-.771-3.259-1.912-4.209-3.424-.297-.427-.545-.853-.741-1.279s-.345-.886-.443-1.38-.171-1.052-.219-1.675c-.051-.623-.076-1.329-.076-2.12v-23.843h7.146v22.514c0 1.053.045 1.905.143 2.563.099.657.243 1.164.44 1.526.815 1.575 2.36 2.365 4.637 2.365 1.495 0 2.691-.354 3.588-1.058.893-.708 1.422-1.684 1.584-2.932.032-.162.06-.344.073-.543.018-.194.025-.375.025-.542v-23.893h6.996v25.077c-.002.524-.019.969-.052 1.329"/><path d="m190.48-104.271c-1.479 0-2.825.703-4.038 2.117v17.833h-6.653v-16.849c0-1.705-.09-3.184-.272-4.434-.18-1.246-.398-2.234-.666-2.955l5.95-1.573c.595 1.014.944 2.213 1.044 3.594.725-.954 1.58-1.787 2.564-2.514.988-.722 2.102-1.08 3.352-1.08.491 0 .893.031 1.203.097.315.066.733.213 1.261.445l-1.823 5.81c-.626-.328-1.266-.491-1.922-.491"/><path d="m210.852-86.094c-1.686 1.611-3.914 2.413-6.685 2.413-1.784 0-3.365-.376-4.751-1.131-1.389-.757-2.295-1.741-2.725-2.957-.199-.559-.337-1.215-.421-1.972-.084-.755-.124-1.772-.124-3.052v-16.158l6.404-1.235v16.209c0 1.15.049 2.038.148 2.66.102.624.232 1.118.402 1.479.164.358.473.646.922.861.451.213.927.319 1.426.319.397 0 .813-.067 1.248-.199.432-.129.842-.309 1.223-.541.384-.23.728-.492 1.027-.789.297-.294.517-.589.65-.887v-17.734l6.401-1.327v19.257c0 .857.129 1.684.393 2.492.264.802.643 1.5 1.133 2.092l-4.693 2.659c-.89-.618-1.553-1.44-1.978-2.459"/><path d="m234.548-104.088c-.707-.648-1.688-.973-2.934-.973-1.25 0-2.213.325-2.904.973-.691.649-1.035 1.558-1.035 2.721 0 1.265.359 2.171 1.082 2.724.723.546 1.66.825 2.809.825 2.693 0 4.041-1.182 4.041-3.549-.003-1.164-.356-2.073-1.059-2.721m10.664-1.268c-.723.294-1.545.442-2.461.442-.332 0-.65-.017-.965-.047-.314-.033-.57-.064-.77-.101.496.59.867 1.218 1.111 1.87.252.66.373 1.415.373 2.271 0 1.083-.23 2.087-.693 3.004s-1.117 1.708-1.965 2.365c-.842.656-1.834 1.173-2.975 1.551-1.143.379-2.391.566-3.748.566h-.693c-.066 0-.168-.017-.301-.05-.857.396-1.514.748-1.959 1.06-.447.312-.672.648-.672 1.01 0 .394.359.591 1.08.591l3.535.053c1.9.029 3.424.21 4.568.541 1.145.329 2.158.9 3.043 1.723 1.441 1.347 2.16 3.136 2.16 5.37 0 2.036-.672 3.779-2.014 5.219-1.115 1.187-2.557 2.021-4.328 2.513-1.77.495-3.639.738-5.604.738-1.805 0-3.555-.186-5.26-.564s-3.135-1.092-4.279-2.143c-1.377-1.282-2.064-2.777-2.064-4.483 0-.69.064-1.227.195-1.601.133-.379.266-.699.396-.963h6.109c-.131.303-.215.563-.246.783-.035.216-.051.51-.051.878 0 2.112 1.576 3.169 4.73 3.169.854 0 1.623-.059 2.314-.174.689-.121 1.295-.344 1.822-.676.494-.304.887-.677 1.182-1.125.297-.454.443-.942.443-1.476 0-1.168-.443-1.96-1.328-2.377-.889-.415-1.988-.645-3.301-.674l-2.809-.05c-2.953-.064-4.977-.329-6.059-.789-.592-.23-1.061-.623-1.404-1.181-.344-.562-.518-1.266-.518-2.118 0-.398.049-.791.148-1.185.098-.391.303-.771.613-1.132.314-.361.771-.707 1.377-1.035.609-.326 1.439-.623 2.49-.887-3.611-.951-5.42-3.285-5.42-6.994 0-1.281.256-2.45.766-3.498.512-1.052 1.23-1.947 2.156-2.685.922-.74 2.045-1.316 3.361-1.728 1.322-.41 2.789-.614 4.41-.614.723 0 1.434.05 2.127.148.691.102 1.498.264 2.424.493.693.166 1.279.294 1.756.394.479.098.936.148 1.361.148.922 0 1.838-.188 2.742-.569.906-.373 1.74-.909 2.494-1.6l2.758 4.188c-.712.661-1.434 1.135-2.157 1.431"/><path d="m263.513-86.094c-1.684 1.611-3.91 2.413-6.682 2.413-1.783 0-3.369-.376-4.754-1.131-1.387-.757-2.291-1.741-2.725-2.957-.199-.559-.336-1.215-.422-1.972-.08-.755-.121-1.772-.121-3.052v-16.158l6.404-1.235v16.209c0 1.15.049 2.038.15 2.66.098.624.232 1.118.398 1.479.164.358.477.646.922.861.451.213.926.319 1.426.319.4 0 .816-.067 1.25-.199.432-.129.84-.309 1.225-.541.381-.23.723-.492 1.023-.789.297-.294.514-.589.648-.887v-17.734l6.406-1.327v19.257c0 .857.131 1.684.395 2.492.262.802.643 1.5 1.135 2.092l-4.697 2.659c-.89-.618-1.556-1.44-1.981-2.459"/><path d="m281.72-94.578c-.891.52-1.334 1.524-1.334 3.013 0 .974.264 1.755.799 2.356.535.598 1.221.9 2.063.9 1.293 0 2.424-.57 3.395-1.703l.1-5.344h-.293c-2.267 0-3.84.262-4.73.778m8.164 10.258c-.637-.523-1.117-1.116-1.447-1.773-.26.261-.512.508-.756.737-.248.228-.5.427-.762.593-1.24.917-2.926 1.376-5.049 1.376-2.844 0-4.992-.676-6.445-2.027-1.453-1.358-2.184-3.325-2.184-5.9 0-3.007 1-5.211 3.004-6.615 2.006-1.404 5.045-2.108 9.113-2.108h.742c.328 0 .574.017.74.053v-1.016c0-1.383-.191-2.339-.57-2.87-.375-.528-1.176-.798-2.387-.798-1.053 0-2.186.249-3.402.743-1.213.491-2.512 1.197-3.889 2.118l-2.813-4.729c.66-.431 1.283-.792 1.875-1.086.59-.294 1.33-.623 2.219-.984 1.246-.524 2.422-.903 3.521-1.133 1.1-.23 2.225-.346 3.371-.346 2.156 0 3.914.379 5.273 1.133 1.357.757 2.281 1.84 2.766 3.254.16.357.275.746.34 1.154.063.413.096.959.096 1.65v1.727l-.146 8.471c0 .693.016 1.292.049 1.798.029.511.129.98.297 1.405.162.428.398.83.713 1.207.313.378.744.778 1.307 1.208l-3.496 4.038c-.746-.328-1.442-.755-2.08-1.28"/><path d="m309.204-78.395c-.723 1.244-1.543 2.179-2.463 2.802-.855.619-1.799 1.118-2.834 1.497-1.031.377-2.125.646-3.275.81l-2.266-4.335c.723-.194 1.459-.436 2.217-.715.756-.277 1.379-.597 1.875-.959.721-.524 1.342-1.215 1.867-2.067.166-.264.297-.494.395-.691.104-.199.201-.403.297-.616.098-.214.207-.452.322-.713.113-.266.252-.573.418-.937h-1.676l-2.365-7.095-5.961-17.734 6.75-.787 4.385 14.828c.098.393.227.887.393 1.479.164.59.311 1.166.445 1.722.129.562.246 1.035.344 1.427l.146.595c0-.067.039-.322.125-.766.08-.443.189-.998.318-1.675.133-.673.246-1.206.346-1.601.1-.424.238-.968.422-1.624.176-.656.367-1.282.563-1.872l3.793-12.023h6.949l-9.166 25.551c-.852 2.418-1.643 4.256-2.364 5.499"/><path d="m155.767-59.418c-.581.271-1.128.419-2.527.419h-1.402v4.656h-2.547v-12.642h3.329c2.147 0 2.801.218 3.511.618 1.183.653 1.819 1.819 1.819 3.275-0 1.673-.8 3.02-2.183 3.674zm-2.309-5.512h-1.619v3.856h1.327c1.037 0 1.345-.126 1.692-.653.219-.346.31-.71.31-1.312-.001-1.18-.638-1.891-1.71-1.891z"/><path d="m165.752-54.343c-.49-.835-.691-1.183-1.181-2.072-1.256-2.273-1.638-2.892-2.093-3.092-.126-.056-.236-.093-.398-.11v5.275h-2.492v-12.643h4.71c2.239 0 3.71 1.492 3.71 3.71 0 1.893-1.255 3.457-2.819 3.494.254.198.362.31.526.527.727.907 3.037 4.91 3.037 4.91h-3zm-1.328-10.422c-.291-.109-.818-.183-1.437-.183h-.908v3.419h.855c1.091 0 1.564-.108 1.91-.418.309-.291.49-.745.49-1.273 0-.781-.31-1.327-.91-1.545z"/><path d="m177.757-54.725c-.764.418-1.475.583-2.528.583-1.911 0-3.147-.528-4.111-1.784-.964-1.235-1.455-2.838-1.455-4.692 0-2.729 1.037-4.911 2.857-5.912.745-.398 1.673-.617 2.617-.617 3.366 0 5.44 2.454 5.44 6.422 0 2.853-.983 4.999-2.82 6zm-.438-8.858c-.198-.638-.872-1.602-2.218-1.602-.856 0-1.602.438-1.964 1.109-.438.817-.637 1.929-.637 3.455 0 2.183.363 3.546 1.127 4.093.4.29.908.437 1.509.437 1.765 0 2.511-1.346 2.511-4.564.001-1.291-.108-2.218-.328-2.928z"/><path d="m192.78-54.343-.474-6.748c-.056-.801-.091-1.438-.091-2.109-.146.727-.254 1.181-.473 1.945l-2.001 6.912h-2.164l-1.8-6.639c-.163-.618-.383-1.511-.509-2.237 0 .745-.037 1.491-.092 2.275l-.437 6.601h-2.529l1.183-12.642h3.256l1.655 6.331c.236.908.327 1.347.436 2 .109-.653.255-1.31.455-2.056l1.709-6.275h3.239l1.127 12.642z"/><path d="m205.003-54.725c-.765.418-1.474.583-2.529.583-1.909 0-3.147-.528-4.111-1.784-.965-1.235-1.455-2.838-1.455-4.692 0-2.729 1.037-4.911 2.856-5.912.746-.398 1.674-.617 2.619-.617 3.366 0 5.438 2.454 5.438 6.422.001 2.853-.981 4.999-2.818 6zm-.438-8.858c-.2-.638-.871-1.602-2.218-1.602-.855 0-1.602.438-1.967 1.109-.436.817-.635 1.929-.635 3.455 0 2.183.363 3.546 1.128 4.093.398.29.909.437 1.509.437 1.765 0 2.51-1.346 2.51-4.564.001-1.291-.109-2.218-.327-2.928z"/><path d="m214.933-54.124c-1.746 0-3.093-.565-4.128-1.745-1.02-1.147-1.529-2.675-1.529-4.531 0-1.58.272-2.835.855-3.928.983-1.837 2.801-2.928 4.839-2.928 1.255 0 2.51.399 3.201 1l-1.146 1.728c-.638-.474-1.311-.709-2.019-.709-.857 0-1.693.419-2.146 1.092-.491.728-.709 1.781-.709 3.256 0 1.728.145 2.691.525 3.382.51.93 1.347 1.419 2.438 1.419.746 0 1.419-.218 2.165-.817l1.164 1.601c-.999.816-2.074 1.18-3.51 1.18z"/><path d="m220.079-54.343v-12.642h2.656v12.642z"/><path d="m232.921-54.725c-.766.418-1.475.583-2.529.583-1.91 0-3.146-.528-4.111-1.784-.963-1.235-1.455-2.838-1.455-4.692 0-2.729 1.037-4.911 2.855-5.912.746-.398 1.674-.617 2.621-.617 3.365 0 5.438 2.454 5.438 6.422-.001 2.853-.981 4.999-2.819 6zm-.436-8.858c-.199-.638-.873-1.602-2.219-1.602-.855 0-1.602.438-1.967 1.109-.436.817-.637 1.929-.637 3.455 0 2.183.363 3.546 1.129 4.093.4.29.908.437 1.51.437 1.764 0 2.51-1.346 2.51-4.564.001-1.291-.107-2.218-.326-2.928zm-3.713-3.802-.746-1.346 3.766-2.366 1.057 1.893z"/><path d="m243.778-54.343-2.164-4.839c-.709-1.581-1.473-3.363-1.709-4.146.09 1.036.107 2.528.127 3.583l.072 5.402h-2.453v-12.642h2.818l2.418 5.057c.637 1.346 1.129 2.675 1.383 3.582-.092-.982-.182-2.6-.199-3.474l-.055-5.165h2.418v12.641z"/><path d="m260.856-56.235c-.764 1.037-1.891 1.729-3.074 1.82-.473.037-1.072.072-1.818.072h-3.074v-12.642h2.547c.727 0 1.691.036 2.199.073 1.074.091 2 .49 2.766 1.255 1.164 1.146 1.729 2.765 1.729 5.038.001 1.728-.417 3.239-1.275 4.384zm-2.218-7.694c-.418-.69-1-1.055-2-1.055h-1.164v8.567h1.365c1.672 0 2.438-1.292 2.438-3.966-.001-1.472-.13-2.708-.639-3.546z"/><path d="m264.132-54.343v-12.642h7.201l-.326 2.073h-4.33v2.93h3.621v2.072h-3.582v3.383h4.783v2.183z"/><path d="m277.044-54.343v-12.642h2.656v12.642z"/><path d="m288.376-54.343-2.166-4.839c-.707-1.581-1.473-3.363-1.709-4.146.092 1.036.111 2.528.129 3.583l.072 5.402h-2.455v-12.642h2.818l2.42 5.057c.637 1.346 1.127 2.675 1.383 3.582-.092-.982-.184-2.6-.201-3.474l-.055-5.165h2.418v12.641z"/><path d="m298.542-54.252h-2.309l-4.295-12.732h2.785l2.092 6.584c.182.565.383 1.274.582 2.201.164-.782.49-1.836.727-2.527l2.148-6.258h2.674z"/><path d="m303.853-54.343v-12.642h7.203l-.328 2.073h-4.33v2.93h3.621v2.072h-3.584v3.383h4.787v2.183z"/><path d="m319.022-54.343c-.49-.835-.693-1.183-1.182-2.072-1.256-2.273-1.639-2.892-2.092-3.092-.129-.056-.236-.093-.4-.11v5.275h-2.492v-12.643h4.711c2.238 0 3.711 1.492 3.711 3.71 0 1.893-1.256 3.457-2.82 3.494.256.198.363.31.527.527.729.907 3.037 4.91 3.037 4.91h-3zm-1.328-10.422c-.291-.109-.818-.183-1.438-.183h-.908v3.419h.855c1.09 0 1.564-.108 1.91-.418.309-.291.49-.745.49-1.273.001-.781-.309-1.327-.909-1.545z"/><path d="m327.062-54.07c-1.438 0-3.039-.418-4.313-1.146l.947-1.983c1.182.619 2.201 1.019 3.475 1.019 1.453 0 2.219-.601 2.219-1.729 0-.817-.527-1.327-1.656-1.638l-1.4-.381c-1.254-.347-2.037-.837-2.49-1.601-.348-.565-.529-1.219-.529-1.93 0-2.31 1.857-3.911 4.531-3.911 1.545 0 3.109.474 4.219 1.274l-1.201 1.819c-1.145-.691-1.998-.964-2.945-.964-1.037 0-1.766.601-1.766 1.455 0 .654.346.982 1.402 1.273l1.527.418c2.072.564 3.201 1.893 3.201 3.766-.003 2.568-2.075 4.259-5.221 4.259z"/><path d="m334.101-54.343v-12.642h2.656v12.642z"/><path d="m346.851-54.725c-.766.418-1.475.583-2.529.583-1.91 0-3.146-.528-4.111-1.784-.963-1.235-1.455-2.838-1.455-4.692 0-2.729 1.035-4.911 2.855-5.912.746-.398 1.674-.617 2.619-.617 3.365 0 5.438 2.454 5.438 6.422.001 2.853-.981 4.999-2.817 6zm-.436-8.858c-.201-.638-.875-1.602-2.221-1.602-.855 0-1.602.438-1.965 1.109-.436.817-.635 1.929-.635 3.455 0 2.183.361 3.546 1.127 4.093.4.29.908.437 1.51.437 1.766 0 2.508-1.346 2.508-4.564-0-1.291-.109-2.218-.324-2.928z"/><path d="m357.798-54.343-2.162-4.839c-.709-1.581-1.475-3.363-1.711-4.146.09 1.036.109 2.528.129 3.583l.07 5.402h-2.455v-12.642h2.82l2.42 5.057c.637 1.346 1.127 2.675 1.381 3.582-.09-.982-.182-2.6-.199-3.474l-.055-5.165h2.42v12.641z"/><path d="m362.999-54.343v-12.642h7.203l-.326 2.073h-4.33v2.93h3.621v2.072h-3.584v3.383h4.785v2.183z"/><path d="m375.403-54.07c-1.438 0-3.035-.418-4.311-1.146l.947-1.983c1.182.619 2.199 1.019 3.473 1.019 1.455 0 2.221-.601 2.221-1.729 0-.817-.529-1.327-1.656-1.638l-1.4-.381c-1.256-.347-2.037-.837-2.492-1.601-.346-.565-.525-1.219-.525-1.93 0-2.31 1.855-3.911 4.529-3.911 1.545 0 3.109.474 4.219 1.274l-1.201 1.819c-1.146-.691-2-.964-2.945-.964-1.039 0-1.766.601-1.766 1.455 0 .654.348.982 1.4 1.273l1.529.418c2.072.564 3.203 1.893 3.203 3.766-.002 2.568-2.076 4.259-5.225 4.259z"/><path d="m382.86-51.705-.963-1.019c.801-.182 1.311-.602 1.311-1.037 0-.236-.109-.363-.475-.582-.492-.292-.709-.691-.709-1.273 0-.873.709-1.565 1.582-1.565 1.055 0 1.82.909 1.82 2.185.001 1.582-1.036 2.909-2.566 3.291z"/><path d="m149.292-34.229v-12.642h7.203l-.326 2.073h-4.33v2.928h3.62v2.073h-3.584v3.384h4.785v2.182h-7.368z"/><path d="m164.443-34.229-2.275-4.457-2.254 4.457h-3.165l3.966-6.767-3.42-5.875h3.111l1.709 3.401 1.729-3.401h3.036l-3.292 5.712 3.929 6.93z"/><path d="m174.992-39.304c-.582.272-1.127.418-2.528.418h-1.401v4.656h-2.547v-12.642h3.329c2.147 0 2.802.218 3.511.618 1.183.654 1.82 1.819 1.82 3.273-.001 1.675-.802 3.022-2.184 3.677zm-2.31-5.511h-1.619v3.856h1.328c1.037 0 1.346-.128 1.691-.655.219-.345.31-.71.31-1.31-.001-1.182-.636-1.891-1.71-1.891z"/><path d="m186.359-34.612c-.764.418-1.473.583-2.529.583-1.909 0-3.146-.527-4.109-1.782-.966-1.235-1.456-2.838-1.456-4.692 0-2.73 1.037-4.913 2.855-5.914.746-.398 1.674-.616 2.62-.616 3.364 0 5.438 2.455 5.438 6.42 0 2.855-.981 5.001-2.819 6.001zm-.437-8.858c-.2-.637-.873-1.6-2.219-1.6-.854 0-1.6.437-1.964 1.108-.437.819-.637 1.929-.637 3.457 0 2.182.364 3.545 1.127 4.093.401.29.909.436 1.51.436 1.764 0 2.51-1.346 2.51-4.564.001-1.293-.109-2.22-.327-2.93z"/><path d="m197.345-34.229c-.492-.838-.691-1.183-1.183-2.073-1.255-2.274-1.636-2.893-2.092-3.092-.127-.055-.236-.091-.399-.109v5.274h-2.492v-12.642h4.71c2.237 0 3.711 1.491 3.711 3.711 0 1.892-1.255 3.455-2.821 3.492.255.199.364.309.528.526.729.91 3.036 4.912 3.036 4.912h-2.998zm-1.328-10.422c-.292-.11-.819-.183-1.437-.183h-.91v3.419h.855c1.091 0 1.564-.108 1.909-.419.31-.29.492-.745.492-1.273.001-.781-.308-1.327-.909-1.544z"/><path d="m209.041-44.762h-3.021v10.532h-2.581v-10.532h-3.094v-2.109h9.113z"/><path d="m216.369-34.229-.891-3.001h-3.711l-.891 3.001h-2.655l4.146-12.678h2.747l3.983 12.678zm-2.199-7.658c-.128-.583-.511-2.237-.511-2.237s-.362 1.49-.601 2.438c-.235.908-.4 1.509-.673 2.345h2.474c.001-.001-.418-1.327-.689-2.546z"/><path d="m225.245-34.012c-1.744 0-3.09-.563-4.129-1.746-1.018-1.146-1.527-2.673-1.527-4.528 0-1.583.271-2.838.857-3.93.982-1.835 2.801-2.928 4.838-2.928 1.254 0 2.508.4 3.199.999l-1.145 1.73c-.639-.474-1.311-.711-2.02-.711-.855 0-1.691.418-2.146 1.092-.492.728-.709 1.782-.709 3.255 0 1.729.145 2.693.527 3.384.508.928 1.346 1.419 2.438 1.419.746 0 1.416-.219 2.162-.818l1.164 1.602c-.997.818-2.071 1.18-3.509 1.18z"/><path d="m230.392-34.229v-12.642h2.656v12.642z"/><path d="m243.144-34.612c-.766.418-1.475.583-2.529.583-1.908 0-3.146-.527-4.111-1.782-.965-1.235-1.455-2.838-1.455-4.692 0-2.73 1.037-4.913 2.855-5.914.746-.398 1.674-.616 2.621-.616 3.365 0 5.438 2.455 5.438 6.42-.001 2.855-.984 5.001-2.819 6.001zm-.436-8.858c-.201-.637-.873-1.6-2.221-1.6-.855 0-1.6.437-1.963 1.108-.438.819-.639 1.929-.639 3.457 0 2.182.365 3.545 1.129 4.093.4.29.91.436 1.51.436 1.764 0 2.51-1.346 2.51-4.564 0-1.293-.109-2.22-.326-2.93z"/><path d="m254.091-34.229-2.164-4.838c-.709-1.583-1.471-3.365-1.707-4.147.09 1.037.107 2.529.127 3.583l.072 5.402h-2.455v-12.642h2.818l2.418 5.055c.637 1.349 1.129 2.675 1.383 3.585-.092-.982-.184-2.603-.199-3.475l-.055-5.167h2.418v12.642h-2.656z"/><path d="m259.292-34.229v-12.642h7.205l-.328 2.073h-4.33v2.928h3.621v2.073h-3.584v3.384h4.785v2.182h-7.369z"/><path d="m271.698-33.956c-1.438 0-3.037-.418-4.311-1.146l.945-1.982c1.182.617 2.199 1.019 3.473 1.019 1.455 0 2.221-.601 2.221-1.729 0-.818-.527-1.327-1.656-1.637l-1.4-.383c-1.256-.347-2.037-.836-2.492-1.601-.344-.563-.525-1.219-.525-1.928 0-2.31 1.855-3.911 4.527-3.911 1.547 0 3.111.473 4.221 1.272l-1.201 1.82c-1.145-.69-2-.964-2.945-.964-1.037 0-1.766.6-1.766 1.454 0 .655.348.983 1.4 1.274l1.529.418c2.072.564 3.203 1.893 3.203 3.766-.002 2.566-2.076 4.258-5.223 4.258z"/><path d="m282.647-34.229v-12.642h7.201l-.326 2.073h-4.33v2.928h3.621v2.073h-3.582v3.384h4.783v2.182h-7.367z"/><path d="m295.56-34.229v-12.642h2.656v12.642z"/><path d="m310.966-34.229-.475-6.748c-.055-.801-.09-1.438-.09-2.111-.146.729-.254 1.183-.475 1.948l-2 6.911h-2.162l-1.803-6.64c-.164-.617-.381-1.509-.51-2.236 0 .746-.035 1.491-.09 2.272l-.438 6.604h-2.529l1.184-12.642h3.256l1.654 6.331c.234.908.326 1.345.438 2 .107-.655.254-1.31.453-2.058l1.711-6.273h3.238l1.127 12.642z"/><path d="m322.37-34.229-.893-3.001h-3.711l-.891 3.001h-2.656l4.146-12.678h2.748l3.984 12.678zm-2.201-7.658c-.127-.583-.51-2.237-.51-2.237s-.363 1.49-.602 2.438c-.234.908-.4 1.509-.672 2.345h2.473c.002-.001-.418-1.327-.689-2.546z"/><path d="m331.337-34.084c-1.893 0-3.293-.618-4.313-1.928-.928-1.183-1.346-2.528-1.346-4.419 0-2.675.873-4.566 2.639-5.75.928-.616 1.873-.89 3.072-.89 1.529 0 2.91.489 4.021 1.453l-1.346 1.584c-.818-.674-1.676-.983-2.639-.983-.744 0-1.381.219-1.818.637-.855.818-1.074 2.184-1.074 4.075 0 1.802.311 2.965.945 3.601.475.455 1.164.709 1.984.709.564 0 1.02-.091 1.438-.309v-2.875h-1.93l-.326-2.072h4.893v6.039c-1.292.765-2.71 1.128-4.2 1.128z"/><path d="m337.901-34.229v-12.642h7.203l-.326 2.073h-4.33v2.928h3.619v2.073h-3.582v3.384h4.783v2.182h-7.367z"/><path d="m353.034-34.229-2.166-4.838c-.709-1.583-1.473-3.365-1.709-4.147.092 1.037.107 2.529.129 3.583l.072 5.402h-2.455v-12.642h2.82l2.416 5.055c.639 1.349 1.129 2.675 1.385 3.585-.092-.982-.184-2.603-.201-3.475l-.055-5.167h2.42v12.642h-2.656z"/><path d="m368.62-39.304c-.58.272-1.127.418-2.527.418h-1.402v4.656h-2.545v-12.642h3.328c2.146 0 2.803.218 3.51.618 1.184.654 1.82 1.819 1.82 3.273 0 1.675-.801 3.022-2.184 3.677zm-2.308-5.511h-1.619v3.856h1.328c1.037 0 1.346-.128 1.691-.655.219-.345.309-.71.309-1.31 0-1.182-.637-1.891-1.709-1.891z"/><path d="m378.442-34.229-.893-3.001h-3.711l-.891 3.001h-2.656l4.148-12.678h2.746l3.982 12.678zm-2.201-7.658c-.127-.583-.508-2.237-.508-2.237s-.365 1.49-.602 2.438c-.236.908-.4 1.509-.672 2.345h2.473c.003-.001-.417-1.327-.691-2.546z"/><path d="m382.407-47.271-.746-1.348 3.766-2.364 1.055 1.893zm-.019 13.042v-12.642h2.656v12.642z"/><path d="m391.083-33.956c-1.438 0-3.037-.418-4.313-1.146l.947-1.982c1.184.617 2.199 1.019 3.475 1.019 1.455 0 2.219-.601 2.219-1.729 0-.818-.527-1.327-1.654-1.637l-1.402-.383c-1.254-.347-2.037-.836-2.49-1.601-.346-.563-.527-1.219-.527-1.928 0-2.31 1.855-3.911 4.529-3.911 1.545 0 3.109.473 4.221 1.272l-1.201 1.82c-1.146-.69-2.002-.964-2.947-.964-1.035 0-1.764.6-1.764 1.454 0 .655.346.983 1.4 1.274l1.527.418c2.074.564 3.201 1.893 3.201 3.766-0 2.566-2.075 4.258-5.221 4.258z"/></g></svg>